<svg width="490" height="104" viewBox="0 0 490 104" fill="none" xmlns="http://www.w3.org/2000/svg">
<g filter="url(#filter0_d_1252_2)">
<path d="M301.277 83H312.375V32.6298H332.182V23.2388H281.47V32.6298H301.277V83ZM377.675 60.4615C377.675 46.2042 367.943 36.8985 354.625 36.8985C341.05 36.8985 331.062 46.631 331.062 60.2054C331.062 73.7797 340.965 83.5976 356.247 83.5976C364.101 83.5976 370.504 81.0364 374.602 76.1701L368.882 69.5964C365.638 72.926 361.625 74.5481 356.503 74.5481C348.563 74.5481 343.014 70.2794 341.733 63.6203H377.505C377.59 62.5958 377.675 61.3152 377.675 60.4615ZM354.625 45.4358C361.625 45.4358 366.662 49.9606 367.516 56.5343H341.648C342.672 49.8752 347.709 45.4358 354.625 45.4358ZM408.843 83.5976C417.721 83.5976 424.807 79.7558 428.308 72.926L420.112 68.1451C417.38 72.4991 413.282 74.4627 408.757 74.4627C400.903 74.4627 394.927 69.0842 394.927 60.2054C394.927 51.4119 400.903 45.948 408.757 45.948C413.282 45.948 417.38 47.9116 420.112 52.2657L428.308 47.4848C424.807 40.5695 417.721 36.8985 408.843 36.8985C394.414 36.8985 384.17 46.5457 384.17 60.2054C384.17 73.8651 394.414 83.5976 408.843 83.5976ZM462.984 36.8985C456.666 36.8985 451.288 38.9474 447.787 42.7039V19.6531H437.116V83H447.787V59.9492C447.787 50.8143 452.91 46.2042 460.508 46.2042C467.338 46.2042 471.35 50.1313 471.35 58.2418V83H482.022V56.8758C482.022 43.1307 473.912 36.8985 462.984 36.8985Z" fill="white"/>
</g>
<g filter="url(#filter1_i_1252_2)">
<path d="M193.739 52.5122V37.4133L165.762 59.6176L193.739 82.71V71.6079L182.193 62.2821L193.739 52.5122Z" fill="url(#paint0_linear_1252_2)"/>
</g>
<g filter="url(#filter2_i_1252_2)">
<path d="M197.206 67.6079V82.7068L225.184 60.5026L197.206 37.4101V48.5123L208.752 57.838L197.206 67.6079Z" fill="url(#paint1_linear_1252_2)"/>
</g>
<g filter="url(#filter3_d_1252_2)">
<path d="M243.492 44.0698V37.4107H233.333V83H244.004V60.8883C244.004 51.5827 249.127 46.8018 257.237 46.8018C258.005 46.8018 258.774 46.8871 259.713 47.0579V36.8985C252.115 36.8985 246.565 39.2889 243.492 44.0698Z" fill="white"/>
</g>
<g filter="url(#filter4_d_1252_2)">
<path d="M19.1236 73.6946V57.2175H47.9797V48.0826H19.1236V32.5447H51.6508V23.239H8.02508V83.0002H52.846V73.6946H19.1236ZM84.6935 83.5979C93.5723 83.5979 100.658 79.7561 104.159 72.9262L95.9628 68.1453C93.2308 72.4993 89.1329 74.4629 84.6082 74.4629C76.7538 74.4629 70.7777 69.0844 70.7777 60.2056C70.7777 51.4122 76.7538 45.9483 84.6082 45.9483C89.1329 45.9483 93.2308 47.9119 95.9628 52.2659L104.159 47.485C100.658 40.5698 93.5723 36.8987 84.6935 36.8987C70.2655 36.8987 60.0207 46.5459 60.0207 60.2056C60.0207 73.8653 70.2655 83.5979 84.6935 83.5979ZM138.835 36.8987C132.517 36.8987 127.139 38.9477 123.638 42.7041V19.6533H112.967V83.0002H123.638V59.9495C123.638 50.8146 128.761 46.2044 136.359 46.2044C143.189 46.2044 147.201 50.1316 147.201 58.242V83.0002H157.873V56.8761C157.873 43.131 149.763 36.8987 138.835 36.8987Z" fill="white"/>
</g>
<defs>
<filter id="filter0_d_1252_2" x="276.458" y="17.9829" width="210.576" height="73.9655" filterUnits="userSpaceOnUse" color-interpolation-filters="sRGB">
<feFlood flood-opacity="0" result="BackgroundImageFix"/>
<feColorMatrix in="SourceAlpha" type="matrix" values="0 0 0 0 0 0 0 0 0 0 0 0 0 0 0 0 0 0 127 0" result="hardAlpha"/>
<feOffset dy="3.34031"/>
<feGaussianBlur stdDeviation="2.50523"/>
<feComposite in2="hardAlpha" operator="out"/>
<feColorMatrix type="matrix" values="0 0 0 0 0.160784 0 0 0 0 0.219608 0 0 0 0 0.564706 0 0 0 0.12 0"/>
<feBlend mode="normal" in2="BackgroundImageFix" result="effect1_dropShadow_1252_2"/>
<feBlend mode="normal" in="SourceGraphic" in2="effect1_dropShadow_1252_2" result="shape"/>
</filter>
<filter id="filter1_i_1252_2" x="165.762" y="37.4133" width="27.9766" height="48.8493" filterUnits="userSpaceOnUse" color-interpolation-filters="sRGB">
<feFlood flood-opacity="0" result="BackgroundImageFix"/>
<feBlend mode="normal" in="SourceGraphic" in2="BackgroundImageFix" result="shape"/>
<feColorMatrix in="SourceAlpha" type="matrix" values="0 0 0 0 0 0 0 0 0 0 0 0 0 0 0 0 0 0 127 0" result="hardAlpha"/>
<feOffset dy="3.55268"/>
<feGaussianBlur stdDeviation="1.77634"/>
<feComposite in2="hardAlpha" operator="arithmetic" k2="-1" k3="1"/>
<feColorMatrix type="matrix" values="0 0 0 0 0 0 0 0 0 0 0 0 0 0 0 0 0 0 0.1 0"/>
<feBlend mode="difference" in2="shape" result="effect1_innerShadow_1252_2"/>
</filter>
<filter id="filter2_i_1252_2" x="197.207" y="37.4102" width="27.9766" height="48.8493" filterUnits="userSpaceOnUse" color-interpolation-filters="sRGB">
<feFlood flood-opacity="0" result="BackgroundImageFix"/>
<feBlend mode="normal" in="SourceGraphic" in2="BackgroundImageFix" result="shape"/>
<feColorMatrix in="SourceAlpha" type="matrix" values="0 0 0 0 0 0 0 0 0 0 0 0 0 0 0 0 0 0 127 0" result="hardAlpha"/>
<feOffset dy="3.55268"/>
<feGaussianBlur stdDeviation="1.77634"/>
<feComposite in2="hardAlpha" operator="arithmetic" k2="-1" k3="1"/>
<feColorMatrix type="matrix" values="0 0 0 0 0 0 0 0 0 0 0 0 0 0 0 0 0 0 0.1 0"/>
<feBlend mode="difference" in2="shape" result="effect1_innerShadow_1252_2"/>
</filter>
<filter id="filter3_d_1252_2" x="228.322" y="35.2283" width="36.4038" height="56.1225" filterUnits="userSpaceOnUse" color-interpolation-filters="sRGB">
<feFlood flood-opacity="0" result="BackgroundImageFix"/>
<feColorMatrix in="SourceAlpha" type="matrix" values="0 0 0 0 0 0 0 0 0 0 0 0 0 0 0 0 0 0 127 0" result="hardAlpha"/>
<feOffset dy="3.34031"/>
<feGaussianBlur stdDeviation="2.50523"/>
<feComposite in2="hardAlpha" operator="out"/>
<feColorMatrix type="matrix" values="0 0 0 0 0.160784 0 0 0 0 0.219608 0 0 0 0 0.564706 0 0 0 0.12 0"/>
<feBlend mode="normal" in2="BackgroundImageFix" result="effect1_dropShadow_1252_2"/>
<feBlend mode="normal" in="SourceGraphic" in2="effect1_dropShadow_1252_2" result="shape"/>
</filter>
<filter id="filter4_d_1252_2" x="3.01297" y="17.9832" width="159.869" height="73.9655" filterUnits="userSpaceOnUse" color-interpolation-filters="sRGB">
<feFlood flood-opacity="0" result="BackgroundImageFix"/>
<feColorMatrix in="SourceAlpha" type="matrix" values="0 0 0 0 0 0 0 0 0 0 0 0 0 0 0 0 0 0 127 0" result="hardAlpha"/>
<feOffset dy="3.34031"/>
<feGaussianBlur stdDeviation="2.50523"/>
<feComposite in2="hardAlpha" operator="out"/>
<feColorMatrix type="matrix" values="0 0 0 0 0.160784 0 0 0 0 0.219608 0 0 0 0 0.564706 0 0 0 0.12 0"/>
<feBlend mode="normal" in2="BackgroundImageFix" result="effect1_dropShadow_1252_2"/>
<feBlend mode="normal" in="SourceGraphic" in2="effect1_dropShadow_1252_2" result="shape"/>
</filter>
<linearGradient id="paint0_linear_1252_2" x1="165.762" y1="60.0617" x2="193.739" y2="60.0617" gradientUnits="userSpaceOnUse">
<stop stop-color="#F83600"/>
<stop offset="1" stop-color="#F9D423"/>
</linearGradient>
<linearGradient id="paint1_linear_1252_2" x1="225.184" y1="60.0585" x2="197.206" y2="60.0585" gradientUnits="userSpaceOnUse">
<stop stop-color="#F83600"/>
<stop offset="1" stop-color="#F9D423"/>
</linearGradient>
</defs>
</svg>
